<?xml version="1.0" encoding="utf-8"?>
<!-- Generator: Adobe Illustrator 17.0.0, SVG Export Plug-In . SVG Version: 6.00 Build 0)  -->
<!DOCTYPE svg PUBLIC "-//W3C//DTD SVG 1.1//EN" "http://www.w3.org/Graphics/SVG/1.1/DTD/svg11.dtd">
<svg version="1.1" id="Layer_1" xmlns="http://www.w3.org/2000/svg" xmlns:xlink="http://www.w3.org/1999/xlink" x="0px" y="0px"
	 width="150px" height="30px" viewBox="0 0 150 30" enable-background="new 0 0 150 30" xml:space="preserve">
<g>
	<g>
		<path fill-rule="evenodd" clip-rule="evenodd" fill="#00CDFF" d="M26.863,12.021c0.696,0,1.259-0.507,1.259-1.131
			c0-0.625-0.564-1.131-1.259-1.131h-2.667c-0.695,0-1.259,0.506-1.259,1.131c0,0.625,0.564,1.131,1.259,1.131H26.863z
			 M2.091,16.087c0,0.625,0.564,1.131,1.259,1.131h21.406c0.695,0,1.259-0.507,1.259-1.131c0-0.625-0.564-1.131-1.259-1.131H3.35
			C2.655,14.955,2.091,15.462,2.091,16.087z M2.329,4.754l4.299,0L8.38,9.759H6.7c-0.695,0-1.259,0.506-1.259,1.131
			c0,0.625,0.564,1.131,1.259,1.131h13.744c0.695,0,1.259-0.507,1.259-1.131c0-0.625-0.564-1.131-1.259-1.131h-9.428L8.752,3.291
			L8.75,3.292C8.591,2.833,8.114,2.5,7.552,2.5l-5.223,0c-0.693,0-1.255,0.505-1.255,1.127C1.075,4.249,1.636,4.754,2.329,4.754z
			 M35.865,5.493c-0.198-0.084-0.407-0.117-0.611-0.106L18.818,5.403c-0.693,0-1.255,0.505-1.255,1.127
			c0,0.622,0.562,1.127,1.255,1.127l14.528-0.014l-6.673,12.702H7.678c-0.695,0-1.259,0.507-1.259,1.131
			c0,0.625,0.564,1.131,1.259,1.131h19.79c0.534,0,0.99-0.299,1.174-0.72l7.823-14.892C36.762,6.432,36.493,5.759,35.865,5.493z
			 M3.926,20.345H1.259C0.564,20.345,0,20.852,0,21.477c0,0.625,0.564,1.131,1.259,1.131h2.667c0.695,0,1.259-0.507,1.259-1.131
			C5.186,20.852,4.622,20.345,3.926,20.345z M22.009,23.791c-1.14,0-2.065,0.83-2.065,1.855c0,1.024,0.925,1.855,2.065,1.855
			c1.14,0,2.065-0.831,2.065-1.855C24.074,24.621,23.149,23.791,22.009,23.791z M15.224,23.791c-1.14,0-2.065,0.83-2.065,1.855
			c0,1.024,0.925,1.855,2.065,1.855c1.141,0,2.065-0.831,2.065-1.855C17.289,24.621,16.365,23.791,15.224,23.791z"/>
	</g>
</g>
<g>
	<path fill="#FFFFFF" d="M60.488,22.876h-3.62l-2.03-7.875c-0.075-0.28-0.204-0.859-0.384-1.738
		c-0.182-0.878-0.286-1.468-0.313-1.769c-0.041,0.369-0.144,0.962-0.308,1.779s-0.291,1.399-0.379,1.748l-2.02,7.854h-3.609
		L44,7.885h3.127l1.917,8.183c0.335,1.511,0.578,2.82,0.728,3.927c0.041-0.39,0.135-0.993,0.282-1.81
		c0.147-0.816,0.286-1.451,0.416-1.902l2.184-8.398h3.004l2.184,8.398c0.096,0.376,0.215,0.95,0.359,1.723s0.253,1.436,0.328,1.989
		c0.068-0.533,0.178-1.198,0.328-1.995c0.15-0.796,0.287-1.44,0.41-1.933l1.907-8.183h3.127L60.488,22.876z"/>
	<path fill="#FFFFFF" d="M71.132,23.082c-1.846,0-3.288-0.509-4.327-1.528s-1.559-2.461-1.559-4.327c0-1.921,0.48-3.406,1.44-4.456
		c0.96-1.049,2.289-1.574,3.984-1.574c1.62,0,2.881,0.461,3.784,1.384s1.354,2.198,1.354,3.825v1.518h-7.393
		c0.034,0.889,0.297,1.583,0.79,2.082s1.183,0.749,2.071,0.749c0.69,0,1.343-0.072,1.958-0.215s1.258-0.373,1.928-0.687v2.42
		c-0.547,0.273-1.131,0.477-1.753,0.61C72.786,23.015,72.027,23.082,71.132,23.082z M70.691,13.422c-0.663,0-1.183,0.21-1.559,0.631
		c-0.376,0.42-0.591,1.017-0.646,1.789h4.389c-0.014-0.772-0.215-1.369-0.605-1.789C71.88,13.632,71.354,13.422,70.691,13.422z"/>
	<path fill="#FFFFFF" d="M84.729,11.197c1.354,0,2.413,0.528,3.179,1.584c0.766,1.056,1.148,2.503,1.148,4.342
		c0,1.894-0.395,3.36-1.185,4.399c-0.789,1.039-1.864,1.559-3.225,1.559c-1.347,0-2.403-0.489-3.168-1.466h-0.215l-0.523,1.261
		h-2.389V6.921h3.127v3.712c0,0.472-0.041,1.227-0.123,2.266h0.123C82.209,11.765,83.293,11.197,84.729,11.197z M83.724,13.699
		c-0.772,0-1.336,0.238-1.692,0.712c-0.355,0.476-0.54,1.26-0.554,2.354v0.338c0,1.23,0.183,2.112,0.548,2.646s0.945,0.8,1.738,0.8
		c0.643,0,1.153-0.295,1.533-0.887c0.379-0.591,0.569-1.451,0.569-2.579s-0.191-1.974-0.574-2.538
		C84.91,13.981,84.387,13.699,83.724,13.699z"/>
	<path fill="#FFFFFF" d="M106.19,18.713c0,1.354-0.487,2.42-1.461,3.199c-0.974,0.779-2.329,1.169-4.065,1.169
		c-1.6,0-3.015-0.301-4.245-0.902v-2.953c1.012,0.451,1.868,0.769,2.568,0.954s1.342,0.277,1.923,0.277
		c0.697,0,1.232-0.133,1.604-0.4s0.559-0.663,0.559-1.189c0-0.294-0.082-0.555-0.246-0.785c-0.164-0.229-0.405-0.449-0.723-0.661
		c-0.317-0.212-0.965-0.55-1.943-1.015c-0.916-0.431-1.603-0.844-2.061-1.241s-0.824-0.858-1.097-1.384s-0.41-1.142-0.41-1.846
		c0-1.326,0.449-2.369,1.348-3.127s2.142-1.138,3.728-1.138c0.779,0,1.522,0.092,2.23,0.277c0.707,0.185,1.447,0.444,2.22,0.779
		l-1.025,2.471c-0.8-0.328-1.461-0.557-1.984-0.687c-0.522-0.13-1.037-0.195-1.543-0.195c-0.602,0-1.063,0.14-1.384,0.42
		s-0.482,0.646-0.482,1.097c0,0.28,0.065,0.525,0.195,0.733c0.13,0.209,0.336,0.41,0.621,0.605c0.283,0.194,0.955,0.545,2.015,1.051
		c1.401,0.67,2.362,1.342,2.881,2.015C105.93,16.911,106.19,17.736,106.19,18.713z"/>
	<path fill="#FFFFFF" d="M119.243,22.876h-3.127v-6.696c0-1.654-0.615-2.481-1.846-2.481c-0.875,0-1.507,0.297-1.897,0.892
		s-0.584,1.559-0.584,2.892v5.394h-3.127V6.921h3.127v3.25c0,0.253-0.024,0.848-0.072,1.784l-0.072,0.923h0.164
		c0.697-1.121,1.805-1.682,3.322-1.682c1.347,0,2.369,0.362,3.066,1.087s1.046,1.764,1.046,3.117V22.876z"/>
	<path fill="#FFFFFF" d="M132.881,17.124c0,1.866-0.492,3.326-1.477,4.378s-2.355,1.579-4.112,1.579
		c-1.101,0-2.071-0.241-2.912-0.723c-0.841-0.482-1.487-1.174-1.938-2.077s-0.677-1.955-0.677-3.158
		c0-1.873,0.489-3.329,1.466-4.368s2.352-1.559,4.122-1.559c1.101,0,2.071,0.239,2.912,0.718s1.487,1.166,1.938,2.061
		S132.881,15.921,132.881,17.124z M124.955,17.124c0,1.135,0.186,1.993,0.559,2.574c0.372,0.581,0.979,0.872,1.82,0.872
		c0.834,0,1.434-0.289,1.799-0.867c0.366-0.577,0.549-1.437,0.549-2.579c0-1.135-0.185-1.986-0.554-2.553s-0.974-0.851-1.815-0.851
		c-0.834,0-1.436,0.282-1.805,0.846C125.139,15.129,124.955,15.982,124.955,17.124z"/>
	<path fill="#FFFFFF" d="M141.761,23.082c-1.347,0-2.403-0.489-3.168-1.466h-0.164c0.109,0.957,0.164,1.511,0.164,1.661v4.645
		h-3.127V11.413h2.543l0.441,1.487h0.144c0.731-1.135,1.815-1.702,3.25-1.702c1.354,0,2.413,0.523,3.179,1.569
		s1.148,2.499,1.148,4.358c0,1.224-0.18,2.287-0.538,3.189c-0.359,0.902-0.87,1.589-1.533,2.061S142.656,23.082,141.761,23.082z
		 M140.838,13.699c-0.772,0-1.336,0.238-1.692,0.712c-0.355,0.476-0.54,1.26-0.554,2.354v0.338c0,1.23,0.183,2.112,0.548,2.646
		s0.945,0.8,1.738,0.8c1.401,0,2.102-1.155,2.102-3.466c0-1.128-0.173-1.974-0.518-2.538
		C142.118,13.981,141.576,13.699,140.838,13.699z"/>
</g>
</svg>
